<svg xmlns="http://www.w3.org/2000/svg" xmlns:xlink="http://www.w3.org/1999/xlink" version="1.1" x="0px" y="0px" viewBox="0 0 3710 3710" style="enable-background:new 0 0 3710 3710;" xml:space="preserve">
<g id="Background">
	<g>
		<g>
			<rect style="fill:#FFFFFF;" width="3710" height="3710"/>
		</g>
	</g>
</g>
<g id="Illustration">
	<g id="Virtualization_technology">
		<path style="fill:#F4F7FA;" d="M2927.321,2915.509c-75.803,78.136-143.63,124.067-195.56,158.741    c-506.466,338.172-1085.412,240.703-1264.408,207.388c-288.788-53.75-532.564-91.667-742.012-280.895    c-475.929-429.983-452.78-1326.958-89.113-1882.596c43.12-65.883,406.237-604.135,986.436-679.979    c14.191-1.855,24.779-2.911,34.053-3.893c89.755-9.503,645.952-59.658,1099.476,320.303    c64.92,54.389,169.394,152.494,266.276,302.121C3376.711,1603.799,3377.834,2451.137,2927.321,2915.509z"/>
		<g>
			<g>
				<g>
					<defs fill="#4dc432">
						<path id="SVGID_1_" d="M877.278,2447.651c-92.018-70.845-101.725-246.876-73.657-363.582        c32.77-136.257,103.879-136.964,121.119-244.917c32.099-200.993-201.238-280.965-184.943-486.224        c13.322-167.799,174.318-178.026,180.615-364.519c4.544-134.572-77.101-193.929-34.544-309.758        c3.638-9.902,44.404-116.127,137.447-137.504c93.909-21.576,186.151,55.904,230.821,117.09        c82.572,113.101,14.921,187.399,63.605,357.393c66.283,231.441,230.914,230.72,244.495,411.223        c11.215,149.054-98.459,183.926-82.741,348.946c14.596,153.237,114.47,178.852,114.411,282.885        C1593.771,2298.013,1064.967,2592.156,877.278,2447.651z" fill="#4dc432"/>
					</defs>
					
						<linearGradient id="SVGID_00000093879268799109010170000016151768846729043640_" gradientUnits="userSpaceOnUse" x1="838.2228" y1="652.8552" x2="1140.3652" y2="1715.5615" fill="#4dc432">
						<stop offset="0" style="stop-color:#FFC444" fill="#4dc432"/>
						<stop offset="0.9964" style="stop-color:#4bba4a" fill="#4dc432"/>
					</linearGradient>
					
						<use xlink:href="#SVGID_1_" style="overflow:visible;fill:url(#SVGID_00000093879268799109010170000016151768846729043640_);"/>
					<clipPath id="SVGID_00000070113030840012740540000010256353828828757694_" fill="#4dc432">
						<use xlink:href="#SVGID_1_" style="overflow:visible;" fill="#4dc432"/>
					</clipPath>
					<g style="clip-path:url(#SVGID_00000070113030840012740540000010256353828828757694_);">
						<path style="opacity:0.7;fill:#FFFFFF;" d="M1009.453,2564.265c-0.71,0-1.4-0.385-1.758-1.056        c-0.519-0.971-0.153-2.179,0.822-2.698c90.443-48.217,166.832-113.237,227.035-193.257        c57.029-75.795,115.986-154.158,115.666-254.383c-0.24-75.767-34.065-118.001-76.89-171.474        c-41.738-52.115-93.681-116.974-127.095-234.694c-19.082-67.217-42.828-150.87-17.685-249.304        c14.65-57.352,38.553-89.04,59.643-116.997c22.044-29.224,39.458-52.306,37.954-94.607        c-2.461-69.069-37.791-115.048-78.7-168.287c-25.285-32.908-51.434-66.935-73.882-110.826        c-63.184-123.554-58.418-285.796,14.169-482.217c0.38-1.034,1.521-1.565,2.562-1.178c1.031,0.381,1.56,1.528,1.177,2.561        c-72.183,195.332-77.012,356.497-14.357,479.018c22.281,43.568,48.315,77.449,73.492,110.214        c41.328,53.782,77.019,100.231,79.522,170.574c1.556,43.716-17.121,68.479-38.751,97.15        c-20.864,27.658-44.513,59.006-58.964,115.582c-24.875,97.395-1.292,180.473,17.658,247.229        c33.195,116.945,84.859,181.455,126.371,233.291c43.312,54.08,77.524,96.795,77.767,173.953        c0.32,101.568-59.044,180.473-116.456,256.78c-60.569,80.502-137.396,145.899-228.362,194.394        C1010.093,2564.188,1009.769,2564.265,1009.453,2564.265z"/>
						<path style="opacity:0.7;fill:#FFFFFF;" d="M1122.887,1506.837c-0.501,0-1.003-0.186-1.389-0.562        c-146.103-141.819-212.156-270.652-241.838-353.754c-32.213-90.194-29.759-147.675-29.731-148.244        c0.052-1.098,1.01-1.983,2.089-1.892c1.1,0.056,1.95,0.99,1.894,2.091c-0.028,0.564-2.42,57.445,29.599,146.965        c29.557,82.645,95.32,210.796,240.766,351.973c0.79,0.768,0.807,2.03,0.042,2.82        C1123.927,1506.635,1123.405,1506.837,1122.887,1506.837z"/>
						<path style="opacity:0.7;fill:#FFFFFF;" d="M1183.379,1801.102c-0.606,0-1.205-0.277-1.594-0.797        c-0.661-0.881-0.484-2.132,0.397-2.792c195.528-146.718,252.178-316.94,265.268-433.903        c14.194-126.79-18.291-220.107-18.622-221.035c-0.369-1.037,0.174-2.178,1.212-2.547c1.044-0.369,2.176,0.171,2.548,1.21        c0.331,0.935,33.094,94.969,18.848,222.629c-13.149,117.796-70.119,289.204-266.859,436.834        C1184.218,1800.971,1183.797,1801.102,1183.379,1801.102z"/>
						<path style="opacity:0.7;fill:#FFFFFF;" d="M1301.231,2288.019c-0.212,0-0.428-0.035-0.641-0.106        c-221.11-74.913-332.995-199.207-387.917-290.283c-59.563-98.77-66.867-180.99-66.933-181.81        c-0.091-1.097,0.728-2.059,1.824-2.15c1.132-0.049,2.061,0.728,2.152,1.826c0.066,0.811,7.335,82.265,66.487,180.266        c54.588,90.441,165.812,213.888,385.668,288.374c1.041,0.353,1.602,1.485,1.246,2.529        C1302.839,2287.495,1302.063,2288.019,1301.231,2288.019z"/>
						<path style="opacity:0.7;fill:#FFFFFF;" d="M1069.834,944.834c-0.512,0-1.02-0.195-1.41-0.585c-0.78-0.778-0.776-2.042,0-2.82        c131.464-131.245,152.673-272.897,147.315-368.618c-5.807-103.735-43.138-177.3-43.514-178.031        c-0.505-0.978-0.118-2.181,0.86-2.684c0.978-0.503,2.183-0.124,2.684,0.86c0.38,0.738,38.097,75.059,43.949,179.631        c5.403,96.535-15.969,239.377-148.474,371.666C1070.854,944.641,1070.342,944.834,1069.834,944.834z"/>
					</g>
				</g>
			</g>
			<g>
				<g>
					<g>
						<defs fill="#4dc432">
							<path id="SVGID_00000023259828784703206110000014217297732327744959_" d="M1455.593,2706.543         c19.745-3.488,59.626-28.482,67.336-39.284c51.307-71.885,156.112-200.232,146.315-293.08         c-1.673-15.857-73.418-27.326-84.052-41.459c-43.967-18.415-60.361-22.076-93.56-60.116         c-98.01-112.304,103.052-341.021-146.251-406.591c-182.611-48.029-331.769,21.023-325.351-259.307         c6.417-280.33-238.756-779.259-524.789-570.67c-164.156,119.711,18.755,349.371-60.256,528.68         c-75.081,170.39,1.877,304.238,183.445,395.996c181.568,91.759,90.608,172.98,46.519,333.641         c-52.962,192.989,241.072,213.128,377.612,210.846C1152.513,2503.362,1433.731,2572.863,1455.593,2706.543z" fill="#4dc432"/>
						</defs>
						
							<linearGradient id="SVGID_00000093178120969486879190000011435010722559543461_" gradientUnits="userSpaceOnUse" x1="875.0148" y1="999.9229" x2="1413.7252" y2="4443.8306" fill="#4dc432">
							<stop offset="0.0036" style="stop-color:#4bbf70" fill="#4dc432"/>
							<stop offset="1" style="stop-color:#31c934" fill="#4dc432"/>
						</linearGradient>
						
							<use xlink:href="#SVGID_00000023259828784703206110000014217297732327744959_" style="overflow:visible;fill:url(#SVGID_00000093178120969486879190000011435010722559543461_);"/>
						<clipPath id="SVGID_00000080902595420308298130000009562512401023936429_" fill="#4dc432">
							<use xlink:href="#SVGID_00000023259828784703206110000014217297732327744959_" style="overflow:visible;" fill="#4dc432"/>
						</clipPath>
						<g style="opacity:0.3;clip-path:url(#SVGID_00000080902595420308298130000009562512401023936429_);">
							<g>
								<path style="fill:#FCFDFE;" d="M1593.974,2528.855l1.687-3.914C992.608,2264.864,609.209,1675.176,570.069,947.529          l-4.26,0.227c18.551,344.853,118.611,671.041,289.364,943.298C1034.687,2177.285,1290.161,2397.831,1593.974,2528.855z"/>
								<path style="fill:#FCFDFE;" d="M633.733,2372.042c167.904-63.837,453.005-78.574,635.536-32.846l1.035-4.136          c-183.249-45.906-469.491-31.102-638.085,32.996L633.733,2372.042z"/>
								<path style="fill:#FCFDFE;" d="M1476.177,2476.446l2.706-3.296c-75.561-62.108-116.822-160.031-122.634-291.046          c-4.262-96.066,10.279-207.358,43.224-330.79l-4.121-1.098c-33.054,123.85-47.646,235.577-43.363,332.075          C1357.855,2314.568,1399.638,2413.536,1476.177,2476.446z"/>
								<path style="fill:#FCFDFE;" d="M832.439,1851.47l2.874-3.151c-136.409-124.396-328.787-150.449-466.153-150.402l0.003,4.266          C505.774,1702.134,697.042,1727.995,832.439,1851.47z"/>
								<path style="fill:#FCFDFE;" d="M658.773,1466.198l4.234-0.505c-24.621-206.513,86.147-394.631,154.364-488.385l-3.448-2.51          C745.338,1069.058,633.98,1258.239,658.773,1466.198z"/>
							</g>
						</g>
					</g>
				</g>
			</g>
		</g>
		<g>
			
				<linearGradient id="SVGID_00000145776607248320897180000002563774654854354613_" gradientUnits="userSpaceOnUse" x1="1152.5758" y1="3212.3098" x2="1040.4628" y2="3259.3975" fill="#4dc432">
				<stop offset="0" style="stop-color:#000000" fill="#4dc432"/>
				<stop offset="0.9964" style="stop-color:#3C3B6B" fill="#4dc432"/>
			</linearGradient>
			<path style="fill:url(#SVGID_00000145776607248320897180000002563774654854354613_);" d="M2074.41,3150.962l-1595.963-13.9     v41.127c0,11.163,6.961,20.654,16.388,22.346l451.291,80.986c5.356,0.961,10.787,1.216,16.191,0.76l1094.749-92.338     c9.773-0.824,17.343-10.345,17.343-21.814V3150.962z"/>
			
				<linearGradient id="SVGID_00000161621076297726283400000000532487523683591331_" gradientUnits="userSpaceOnUse" x1="1002.8707" y1="2718.1904" x2="881.1992" y2="2769.2925" fill="#4dc432">
				<stop offset="0" style="stop-color:#000000" fill="#4dc432"/>
				<stop offset="0.9964" style="stop-color:#3C3B6B" fill="#4dc432"/>
			</linearGradient>
			<path style="fill:url(#SVGID_00000161621076297726283400000000532487523683591331_);" d="M1560.649,3084.293L496.012,3159.53     c-19.051,1.346-34.541-12.959-34.541-31.956v-761.089c0-18.997,15.49-34.397,34.541-34.397h1064.637     c15.695,0,28.385,13.921,28.385,31.094v688.011C1589.034,3068.365,1576.344,3083.183,1560.649,3084.293z"/>
			
				<linearGradient id="SVGID_00000088106378239004574980000015244731878956557734_" gradientUnits="userSpaceOnUse" x1="478.4468" y1="2745.8523" x2="1606.0099" y2="2745.8523" fill="#4dc432">
				<stop offset="0" style="stop-color:#000000" fill="#4dc432"/>
				<stop offset="0.9964" style="stop-color:#3C3B6B" fill="#4dc432"/>
			</linearGradient>
			<path style="fill:url(#SVGID_00000088106378239004574980000015244731878956557734_);" d="M1577.625,3084.293L512.988,3159.53     c-19.051,1.346-34.541-12.959-34.541-31.956v-761.089c0-18.997,15.49-34.397,34.541-34.397h1064.637     c15.695,0,28.385,13.921,28.385,31.094v688.011C1606.01,3068.365,1593.32,3083.183,1577.625,3084.293z"/>
			<path style="fill:#FFFFFF;" d="M1544.458,3035.787L552.86,3101.14c-15.503,1.022-28.102-10.72-28.102-26.228v-666.335     c0-15.508,12.599-28.133,28.102-28.197l991.598-4.104c12.947-0.054,23.42,11.354,23.42,25.479v606.911     C1567.878,3022.792,1557.406,3034.934,1544.458,3035.787z"/>
			<path style="fill:#FFFFFF;" d="M1082.906,2352.905c0,7.072-5.48,12.821-12.246,12.842c-6.775,0.021-12.273-5.708-12.273-12.796     s5.498-12.837,12.273-12.842C1077.427,2340.103,1082.906,2345.833,1082.906,2352.905z"/>
			
				<linearGradient id="SVGID_00000013165539142960965640000009928873128897538491_" gradientUnits="userSpaceOnUse" x1="478.4468" y1="3162.8208" x2="2074.4099" y2="3162.8208" fill="#4dc432">
				<stop offset="0" style="stop-color:#000000" fill="#4dc432"/>
				<stop offset="0.9964" style="stop-color:#3C3B6B" fill="#4dc432"/>
			</linearGradient>
			<path style="fill:url(#SVGID_00000013165539142960965640000009928873128897538491_);" d="M1551.06,3080.881l-1072.613,79.194     l467.679,83.927c5.356,0.961,10.787,1.216,16.191,0.76l1112.093-93.801l-506.288-69.543     C1562.46,3080.641,1556.749,3080.461,1551.06,3080.881z"/>
			
				<linearGradient id="SVGID_00000066489837190121092570000006215929670751554977_" gradientUnits="userSpaceOnUse" x1="634.9578" y1="3149.7444" x2="1804.3101" y2="3149.7444" fill="#4dc432">
				<stop offset="0" style="stop-color:#000000" fill="#4dc432"/>
				<stop offset="0.9964" style="stop-color:#3C3B6B" fill="#4dc432"/>
			</linearGradient>
			<polygon style="opacity:0.3;fill:url(#SVGID_00000066489837190121092570000006215929670751554977_);" points="634.958,3162.066      1527.94,3095.152 1804.31,3132.808 919.02,3204.336    "/>
			<g>
				
					<linearGradient id="SVGID_00000154405257999238150400000012808255138481075111_" gradientUnits="userSpaceOnUse" x1="915.7365" y1="2655.0688" x2="1308.7854" y2="2035.3547" fill="#4dc432">
					<stop offset="0" style="stop-color:#ffffff" fill="#4dc432"/>
					<stop offset="1" style="stop-color:#7afb6f" fill="#4dc432"/>
				</linearGradient>
				<path style="fill:url(#SVGID_00000154405257999238150400000012808255138481075111_);" d="M1568,2505.113l-1043.364,12.961      v-117.868c0-13.217,10.714-23.931,23.931-23.931h995.503c13.216,0,23.931,10.714,23.931,23.931V2505.113z"/>
				<g>
					
						<linearGradient id="SVGID_00000005254973050250328270000009419242116165975431_" gradientUnits="userSpaceOnUse" x1="826.063" y1="2575.8003" x2="1153.9137" y2="3286.4382" fill="#4dc432">
						<stop offset="0.0036" style="stop-color:#4bbf70" fill="#4dc432"/>
						<stop offset="1" style="stop-color:#31c934" fill="#4dc432"/>
					</linearGradient>
					<polygon style="fill:url(#SVGID_00000005254973050250328270000009419242116165975431_);" points="1178.766,2820.881        588.866,2845.255 588.866,2566.604 1178.766,2556.712      "/>
					
						<linearGradient id="SVGID_00000160168327033722449280000011384744043177095356_" gradientUnits="userSpaceOnUse" x1="1227.8124" y1="2390.1187" x2="1541.351" y2="3069.7339" fill="#4dc432">
						<stop offset="0.0036" style="stop-color:#4bbf70" fill="#4dc432"/>
						<stop offset="1" style="stop-color:#31c934" fill="#4dc432"/>
					</linearGradient>
					<polygon style="fill:url(#SVGID_00000160168327033722449280000011384744043177095356_);" points="1514.401,2807.013        1213.553,2819.443 1213.553,2556.129 1514.401,2551.084      "/>
					
						<linearGradient id="SVGID_00000066517284071072205940000014369447609190722223_" gradientUnits="userSpaceOnUse" x1="885.6623" y1="2586.5081" x2="1185.6626" y2="3236.7783" fill="#4dc432">
						<stop offset="0.0036" style="stop-color:#4bbf70" fill="#4dc432"/>
						<stop offset="1" style="stop-color:#31c934" fill="#4dc432"/>
					</linearGradient>
					<polygon style="fill:url(#SVGID_00000066517284071072205940000014369447609190722223_);" points="1514.401,2996.981        588.866,3052.088 588.866,2881.642 1514.401,2840.433      "/>
				</g>
				<path style="fill:#9D3060;" d="M599.443,2442.148c0,7.285-6.461,13.236-14.441,13.291c-7.991,0.056-14.478-5.82-14.478-13.123      c0-7.304,6.486-13.254,14.478-13.292C592.982,2428.988,599.443,2434.863,599.443,2442.148z"/>
				<path style="fill:#9D3060;" d="M651.667,2441.845c0,7.251-6.401,13.175-14.308,13.229c-7.918,0.055-14.344-5.793-14.344-13.063      c0-7.27,6.427-13.193,14.344-13.23C645.266,2428.745,651.667,2434.593,651.667,2441.845z"/>
				<path style="fill:#9D3060;" d="M703.413,2441.544c0,7.218-6.343,13.114-14.177,13.168c-7.845,0.055-14.213-5.767-14.213-13.004      c0-7.236,6.368-13.132,14.213-13.169C697.07,2428.504,703.413,2434.326,703.413,2441.544z"/>
			</g>
			<path style="opacity:0.48;fill:#FFFFFF;" d="M1321.117,2875.552c-82.074-44.16-146.608,11.796-208.889-43.413     c-37.759-33.471-19.22-58.431-65.682-108.45c-51.459-55.4-84.962-36.777-136.677-86.638     c-65.391-63.045-32.686-112.096-89.012-157.36c-68.331-54.912-142.023-4.087-207.07-56.75     c-28.055-22.714-43.448-55.735-51.487-90.854h-63.645c-11.153,0-20.21,9.039-20.21,20.19v788.935     c0,11.151,9.057,19.548,20.21,18.756l1085.04-77.018c5.325-0.378,10.047-3.487,13.077-7.994     c-79.428-2.895-128.225-29.521-159.417-57.048C1376.336,2964.059,1386.92,2910.957,1321.117,2875.552z"/>
		</g>
		<g>
			<path style="fill:#2d3b30;" d="M2722.935,3135.756c-24.679-8.186-43.125-29.132-48.327-54.875l-35.92-177.779l-307.27,10.911     l-37.816,185.206c-5.296,25.938,15.905,51.96,40.321,61.513l128.555,50.299c23.91,9.355,49.612,13.081,75.157,10.896     l271.684-23.242c7.942-0.679,14.313-6.923,15.237-14.932c0.924-8.009,6.489-17.002-1.085-19.514L2722.935,3135.756z"/>
			
				<linearGradient id="SVGID_00000011728542700723966830000007556318042915164590_" gradientUnits="userSpaceOnUse" x1="2560.8704" y1="2966.3391" x2="2565.5408" y2="3141.491" fill="#4dc432">
				<stop offset="0" style="stop-color:#000000" fill="#4dc432"/>
				<stop offset="0.9964" style="stop-color:#000000" fill="#4dc432"/>
			</linearGradient>
			<path style="fill:url(#SVGID_00000011728542700723966830000007556318042915164590_);" d="M2725.976,3124.944     c-24.654-8.083-43.082-28.765-48.278-54.185l-35.884-175.544L2342.034,2906l-37.778,182.878     c-5.291,25.612,8.708,51.295,33.1,60.729l128.426,49.667c23.886,9.238,49.562,12.917,75.082,10.759l271.41-22.95     c7.934-0.671,14.298-6.836,15.222-14.744s-3.85-15.374-11.416-17.854L2725.976,3124.944z"/>
			
				<linearGradient id="SVGID_00000143591111542618883570000007806250087891957383_" gradientUnits="userSpaceOnUse" x1="2599.0027" y1="2748.5925" x2="2084.312" y2="941.6243" fill="#4dc432">
				<stop offset="0" style="stop-color:#000000" fill="#4dc432"/>
				<stop offset="0.9964" style="stop-color:#000000" fill="#4dc432"/>
			</linearGradient>
			<path style="fill:url(#SVGID_00000143591111542618883570000007806250087891957383_);" d="M3216.658,2779.496v-797.154     c0-16.346-13.471-30.261-29.98-30.925l-1369.523-55.053c-20.84-0.838-37.943,13.563-37.943,32.004v880.975L3216.658,2779.496z"/>
			<g>
				<path style="fill:#FFFFFF;" d="M1821.572,2050.974v688.167c0,17.177,15.878,30.779,35.23,30.229l1299.764-36.965      c15.513-0.441,28.173-13.335,28.173-28.656v-613.766L1821.572,2050.974z"/>
				
					<linearGradient id="SVGID_00000021114491710504848470000012284630923094376625_" gradientUnits="userSpaceOnUse" x1="2084.2488" y1="1580.0623" x2="3022.249" y2="2587.1382" fill="#4dc432">
					<stop offset="0" style="stop-color:#ffffff" fill="#4dc432"/>
					<stop offset="1" style="stop-color:#7afb6f" fill="#4dc432"/>
				</linearGradient>
				<path style="fill:url(#SVGID_00000021114491710504848470000012284630923094376625_);" d="M3184.739,2089.984v-70.437      c0-15.006-12.401-27.747-27.595-28.313l-1301.062-48.538c-18.958-0.707-34.511,12.479-34.511,29.304v78.975L3184.739,2089.984z"/>
				<g>
					<path style="fill:#9D3060;" d="M1916.678,1997.396c0,5.913-5.389,10.537-12.047,10.326       c-6.667-0.211-12.079-5.189-12.079-11.119c0-5.93,5.412-10.552,12.079-10.325       C1911.289,1986.505,1916.678,1991.482,1916.678,1997.396z"/>
					<path style="fill:#9D3060;" d="M1968.604,1999.101c0,5.879-5.326,10.476-11.906,10.268       c-6.589-0.208-11.938-5.156-11.938-11.051s5.349-10.491,11.938-10.267C1963.277,1988.275,1968.604,1993.222,1968.604,1999.101z       "/>
					<path style="fill:#9D3060;" d="M2019.925,2000.786c0,5.845-5.265,10.416-11.768,10.211       c-6.512-0.206-11.799-5.124-11.799-10.985c0-5.86,5.287-10.431,11.799-10.209       C2014.661,1990.025,2019.925,1994.942,2019.925,2000.786z"/>
				</g>
			</g>
			
				<linearGradient id="SVGID_00000035522513426548118980000010869024212171381660_" gradientUnits="userSpaceOnUse" x1="1779.2126" y1="2895.8152" x2="3216.6584" y2="2895.8152" fill="#4dc432">
				<stop offset="0" style="stop-color:#000000" fill="#4dc432"/>
				<stop offset="0.9964" style="stop-color:#000000" fill="#4dc432"/>
			</linearGradient>
			<path style="fill:url(#SVGID_00000035522513426548118980000010869024212171381660_);" d="M1779.213,2809.344v175.939     c0,18.441,17.102,32.806,37.943,31.926l1369.523-57.899c16.509-0.698,29.98-14.641,29.98-30.987v-153.941L1779.213,2809.344z"/>
			<g>
				<g>
					
						<linearGradient id="SVGID_00000003066089522612193010000007197564394093441959_" gradientUnits="userSpaceOnUse" x1="2226.6543" y1="2133.2239" x2="2637.469" y2="3023.6917" fill="#4dc432">
						<stop offset="0.0036" style="stop-color:#4bbf70" fill="#4dc432"/>
						<stop offset="1" style="stop-color:#31c934" fill="#4dc432"/>
					</linearGradient>
					<polygon style="fill:url(#SVGID_00000003066089522612193010000007197564394093441959_);" points="2676.554,2436.658        1921.369,2440.75 1921.369,2125.421 2676.554,2139.159      "/>
					
						<linearGradient id="SVGID_00000072274197214290992810000008581935886212736426_" gradientUnits="userSpaceOnUse" x1="2747.4382" y1="1935.134" x2="3126.1467" y2="2756.0093" fill="#4dc432">
						<stop offset="0.0036" style="stop-color:#4bbf70" fill="#4dc432"/>
						<stop offset="1" style="stop-color:#31c934" fill="#4dc432"/>
					</linearGradient>
					<polygon style="fill:url(#SVGID_00000072274197214290992810000008581935886212736426_);" points="3102.988,2434.347        2720.861,2436.418 2720.861,2139.965 3102.988,2146.917      "/>
					
						<linearGradient id="SVGID_00000182525305897118500160000006917805018017164673_" gradientUnits="userSpaceOnUse" x1="2294.8372" y1="2102.2441" x2="2688.0881" y2="2954.6414" fill="#4dc432">
						<stop offset="0.0036" style="stop-color:#4bbf70" fill="#4dc432"/>
						<stop offset="1" style="stop-color:#31c934" fill="#4dc432"/>
					</linearGradient>
					<polygon style="fill:url(#SVGID_00000182525305897118500160000006917805018017164673_);" points="3102.988,2647.698        1921.369,2674.809 1921.369,2481.927 3102.988,2471.881      "/>
				</g>
			</g>
			<g style="opacity:0.48;">
				<path style="fill:#FFFFFF;" d="M3068.323,2676.578c-112.481-37.991-205.538,39.502-286.391-21.514      c-91.152-68.788-17.477-200.939-101.793-278.792c-117.129-108.151-351.298,59.573-453.002-42.387      c-69.924-70.099,12.56-182.327-46.65-300.383c-30.105-60.025-86.517-100.948-154.993-128.764l-208.339-8.375      c-20.84-0.838-37.942,13.563-37.942,32.004v880.975v175.939c0,18.441,17.102,32.806,37.942,31.925l1369.524-57.898      c16.509-0.698,29.98-14.641,29.98-30.987v-113.753C3168.429,2729.306,3115.188,2692.407,3068.323,2676.578z"/>
			</g>
		</g>
		<g>
			<g style="enable-background:new    ;">
				<g>
					<path style="fill:#000000;" d="M2067.377,589.498c209.141,10.961,385.924,198.105,394.896,418.041       c0.855,20.962,0.178,41.44-2.004,61.339c36.267-14.217,76.394-21.029,118.906-18.801       c172.6,9.046,318.525,163.523,325.929,345.033c7.036,172.481-113.511,307.289-273.612,312.553       c-8.408,0.245-16.919,0.173-25.504-0.277l-1430.491-79.801c-80.574-19.654-144.093-96.491-147.705-185.028       c-4.069-99.752,69.544-176.635,164.429-171.663c20.111,1.054,39.569,5.69,57.785,13.316       c-8.3-31.204-13.326-63.577-14.675-96.661c-9.275-227.371,158.452-402.478,374.603-391.15       c40.164,2.105,79.223,10.543,116.215,24.265C1776.18,677.268,1908.176,581.155,2067.377,589.498z"/>
				</g>
				<g>
					
						<linearGradient id="SVGID_00000115476866033689399390000002094655995172289468_" gradientUnits="userSpaceOnUse" x1="1084.8315" y1="1114.8201" x2="2962.5972" y2="1114.8201" fill="#4dc432">
						<stop offset="0.0036" style="stop-color:#4bbf70" fill="#4dc432"/>
						<stop offset="1" style="stop-color:#31c934" fill="#4dc432"/>
					</linearGradient>
					<path style="fill:url(#SVGID_00000115476866033689399390000002094655995172289468_);" d="M2124.578,555.92       c209.141,10.961,385.924,198.105,394.895,418.041c0.855,20.962,0.179,41.44-2.004,61.339       c36.268-14.217,76.395-21.029,118.906-18.802c172.6,9.046,318.525,163.523,325.929,345.033       c7.036,172.481-113.511,307.289-273.612,312.553c-8.407,0.245-16.918,0.173-25.504-0.277l-1430.491-79.801       c-80.574-19.654-144.093-96.491-147.705-185.028c-4.069-99.752,69.544-176.635,164.429-171.663       c20.111,1.054,39.569,5.69,57.785,13.316c-8.3-31.204-13.326-63.577-14.675-96.661       c-9.275-227.371,158.452-402.478,374.603-391.15c40.164,2.105,79.223,10.543,116.215,24.265       C1833.381,643.69,1965.376,547.577,2124.578,555.92z"/>
				</g>
			</g>
		</g>
		<g>
			<g style="enable-background:new    ;">
				<g>
					<path style="fill:#000000;" d="M1178.448,1722.466c78.071,4.092,144.094,73.984,147.443,156.085       c0.319,7.81,0.068,15.466-0.756,22.904c13.539-5.307,28.524-7.857,44.387-7.026c64.435,3.377,118.902,61.036,121.667,128.797       c2.628,64.419-42.365,114.745-102.136,116.694c-3.139,0.085-6.311,0.074-9.52-0.094l-534.034-29.796       c-30.093-7.344-53.821-36.021-55.169-69.074c-1.519-37.239,25.974-65.944,61.416-64.086c7.487,0.392,14.76,2.114,21.546,4.963       c-3.084-11.665-4.97-23.734-5.473-36.074c-3.463-84.882,59.145-150.277,139.861-146.047c15.002,0.786,29.567,3.95,43.382,9.07       C1069.746,1755.238,1119.004,1719.35,1178.448,1722.466z"/>
				</g>
				<g>
					<path style="fill:#F8F8F8;" d="M1214.066,1695.434c78.071,4.092,144.094,73.984,147.443,156.085       c0.319,7.81,0.068,15.466-0.756,22.904c13.539-5.307,28.524-7.857,44.387-7.026c64.435,3.377,118.902,61.036,121.666,128.797       c2.628,64.419-42.365,114.745-102.136,116.694c-3.139,0.085-6.311,0.074-9.52-0.094L881.115,2083       c-30.093-7.345-53.821-36.021-55.169-69.074c-1.519-37.239,25.974-65.944,61.416-64.086c7.487,0.392,14.76,2.114,21.546,4.963       c-3.084-11.665-4.97-23.734-5.473-36.074c-3.463-84.882,59.145-150.277,139.861-146.047c15.002,0.786,29.567,3.95,43.382,9.07       C1105.364,1728.206,1154.622,1692.319,1214.066,1695.434z"/>
				</g>
			</g>
		</g>
		<g>
			<g style="enable-background:new    ;">
				<g>
					<path style="fill:#000000;" d="M2810.666,1366.404c78.072,4.092,144.094,73.984,147.443,156.085       c0.319,7.81,0.039,15.464-0.754,22.905c13.538-5.307,28.522-7.858,44.385-7.026c64.437,3.377,118.904,61.036,121.668,128.797       c2.626,64.387-42.366,114.714-102.136,116.694c-3.139,0.085-6.311,0.075-9.521-0.094l-534.063-29.797       c-30.063-7.342-53.792-36.019-55.14-69.072c-1.519-37.239,25.976-65.944,61.387-64.088c7.516,0.394,14.789,2.115,21.575,4.965       c-3.084-11.665-4.97-23.735-5.473-36.075c-3.463-84.882,59.145-150.277,139.861-146.047c15.002,0.786,29.567,3.95,43.384,9.07       C2701.966,1399.176,2751.222,1363.288,2810.666,1366.404z"/>
				</g>
				<g>
					
						<linearGradient id="SVGID_00000016037264459638790460000014993674502043444377_" gradientUnits="userSpaceOnUse" x1="2456.3538" y1="1547.3073" x2="3157.3835" y2="1547.3073" fill="#4dc432">
						<stop offset="0.0036" style="stop-color:#4bbf70" fill="#4dc432"/>
						<stop offset="1" style="stop-color:#31c934" fill="#4dc432"/>
					</linearGradient>
					<path style="fill:url(#SVGID_00000016037264459638790460000014993674502043444377_);" d="M2844.533,1338.648       c78.072,4.092,144.094,73.984,147.443,156.085c0.319,7.81,0.039,15.464-0.754,22.905c13.538-5.307,28.522-7.858,44.385-7.026       c64.437,3.377,118.904,61.036,121.668,128.797c2.626,64.387-42.366,114.714-102.136,116.694       c-3.139,0.085-6.311,0.075-9.521-0.094l-534.063-29.797c-30.063-7.342-53.792-36.019-55.14-69.072       c-1.519-37.239,25.976-65.944,61.387-64.088c7.516,0.394,14.789,2.115,21.575,4.965c-3.084-11.665-4.97-23.735-5.473-36.075       c-3.463-84.882,59.145-150.277,139.861-146.047c15.002,0.786,29.567,3.95,43.384,9.07       C2735.833,1371.42,2785.089,1335.532,2844.533,1338.648z"/>
				</g>
			</g>
		</g>
		<g>
			<g>
				<path style="fill:#000000;" d="M1663.079,1607.853c-7.875,0-14.26-6.385-14.26-14.26v-44.562c0-7.875,6.385-14.26,14.26-14.26      c7.875,0,14.26,6.385,14.26,14.26v44.562C1677.339,1601.468,1670.954,1607.853,1663.079,1607.853z"/>
				<path style="fill:#000000;" d="M1663.079,2526.924c-7.875,0-14.26-6.385-14.26-14.26v-91.907c0-7.875,6.385-14.26,14.26-14.26      c7.875,0,14.26,6.385,14.26,14.26v91.907C1677.339,2520.539,1670.954,2526.924,1663.079,2526.924z M1663.079,2343.11      c-7.875,0-14.26-6.385-14.26-14.26v-91.907c0-7.875,6.385-14.26,14.26-14.26c7.875,0,14.26,6.385,14.26,14.26v91.907      C1677.339,2336.725,1670.954,2343.11,1663.079,2343.11z M1663.079,2159.294c-7.875,0-14.26-6.385-14.26-14.26v-91.907      c0-7.875,6.385-14.26,14.26-14.26c7.875,0,14.26,6.385,14.26,14.26v91.907      C1677.339,2152.91,1670.954,2159.294,1663.079,2159.294z M1663.079,1975.481c-7.875,0-14.26-6.385-14.26-14.26v-91.907      c0-7.875,6.385-14.26,14.26-14.26c7.875,0,14.26,6.385,14.26,14.26v91.907      C1677.339,1969.096,1670.954,1975.481,1663.079,1975.481z M1663.079,1791.667c-7.875,0-14.26-6.385-14.26-14.26V1685.5      c0-7.875,6.385-14.26,14.26-14.26c7.875,0,14.26,6.385,14.26,14.26v91.907      C1677.339,1785.282,1670.954,1791.667,1663.079,1791.667z"/>
				<path style="fill:#000000;" d="M1677.339,2663.678l-88.351-1.755c-7.875-0.155-14.131-6.665-13.974-14.54      c0.153-7.777,6.507-13.976,14.249-13.976c0.097,0,0.195,0.002,0.289,0.004l59.267,1.177v-30.017      c0-7.875,6.385-14.26,14.26-14.26c7.875,0,14.26,6.385,14.26,14.26V2663.678z"/>
			</g>
			<g>
				<path style="fill:#000000;" d="M2316.866,1650.633c-7.875,0-14.26-6.385-14.26-14.26v-44.562c0-7.875,6.385-14.26,14.26-14.26      c7.875,0,14.26,6.385,14.26,14.26v44.562C2331.126,1644.248,2324.741,1650.633,2316.866,1650.633z"/>
				<path style="fill:#000000;" d="M2316.866,1818.535c-7.875,0-14.26-6.385-14.26-14.26v-83.952c0-7.875,6.385-14.26,14.26-14.26      c7.875,0,14.26,6.385,14.26,14.26v83.952C2331.126,1812.15,2324.741,1818.535,2316.866,1818.535z"/>
				<path style="fill:#000000;" d="M2316.866,1947.048c-7.875,0-14.26-6.385-14.26-14.26v-44.562c0-7.875,6.385-14.26,14.26-14.26      c7.875,0,14.26,6.385,14.26,14.26v44.562C2331.126,1940.663,2324.741,1947.048,2316.866,1947.048z"/>
			</g>
			<g>
				<path style="fill:#000000;" d="M2720.86,1707.672c-7.875,0-14.26-6.385-14.26-14.26v-44.562c0-7.875,6.385-14.26,14.26-14.26      c7.875,0,14.26,6.385,14.26,14.26v44.562C2735.12,1701.287,2728.735,1707.672,2720.86,1707.672z"/>
				<path style="fill:#000000;" d="M2720.86,1844.678c-7.875,0-14.26-6.385-14.26-14.26v-68.503c0-7.875,6.385-14.26,14.26-14.26      c7.875,0,14.26,6.385,14.26,14.26v68.503C2735.12,1838.293,2728.735,1844.678,2720.86,1844.678z"/>
				<path style="fill:#000000;" d="M2720.86,1957.743c-7.875,0-14.26-6.385-14.26-14.26v-44.562c0-7.875,6.385-14.26,14.26-14.26      c7.875,0,14.26,6.385,14.26,14.26v44.562C2735.12,1951.358,2728.735,1957.743,2720.86,1957.743z"/>
			</g>
			<g>
				<path style="fill:#000000;" d="M1213.552,2077.987c-7.875,0-14.26-6.385-14.26-14.26v-44.562c0-7.875,6.385-14.26,14.26-14.26      c7.875,0,14.26,6.385,14.26,14.26v44.562C1227.812,2071.602,1221.427,2077.987,1213.552,2077.987z"/>
				<path style="fill:#000000;" d="M1213.552,2214.993c-7.875,0-14.26-6.385-14.26-14.26v-68.503c0-7.875,6.385-14.26,14.26-14.26      c7.875,0,14.26,6.385,14.26,14.26v68.503C1227.812,2208.608,1221.427,2214.993,1213.552,2214.993z"/>
				<path style="fill:#000000;" d="M1213.552,2328.058c-7.875,0-14.26-6.385-14.26-14.26v-44.562c0-7.875,6.385-14.26,14.26-14.26      c7.875,0,14.26,6.385,14.26,14.26v44.562C1227.812,2321.673,1221.427,2328.058,1213.552,2328.058z"/>
			</g>
		</g>
		<g style="opacity:0.5;">
			<path style="fill:#FFFFFF;" d="M2215.65,800.307l-256.765-20.962c-23.418-1.912-42.875,17.645-43.441,43.683l-1.732,79.802     c-0.565,26.039,17.976,48.639,41.396,50.479l256.782,20.172c23.188,1.822,42.428-17.684,42.99-43.565l1.722-79.32     C2257.164,824.715,2238.837,802.201,2215.65,800.307z"/>
			<g>
				<path style="fill:#FFFFFF;" d="M2171.798,1090.048l-180.122-13.766c-12.183-0.931-22.302,9.251-22.595,22.742l-1.958,90.215      c-0.293,13.491,9.352,25.159,21.536,26.061l180.132,13.325c12.102,0.895,22.146-9.273,22.437-22.711l1.95-89.859      C2193.469,1102.616,2183.899,1090.973,2171.798,1090.048z"/>
				<path style="fill:#FFFFFF;" d="M2429.181,1109.719l-178.481-13.641c-12.074-0.923-22.101,9.216-22.393,22.646l-1.949,89.803      c-0.292,13.43,9.264,25.041,21.338,25.934l178.491,13.203c11.993,0.887,21.947-9.238,22.237-22.615l1.942-89.45      C2450.656,1122.222,2441.174,1110.635,2429.181,1109.719z"/>
				<path style="fill:#FFFFFF;" d="M1658.405,1052.616l-180.122-13.766c-12.183-0.931-22.302,9.251-22.595,22.742l-1.958,90.215      c-0.293,13.491,9.351,25.159,21.536,26.061l180.132,13.325c12.102,0.895,22.145-9.273,22.437-22.711l1.951-89.859      C1680.076,1065.184,1670.505,1053.541,1658.405,1052.616z"/>
				<path style="fill:#FFFFFF;" d="M1915.788,1072.287l-178.482-13.641c-12.074-0.923-22.101,9.216-22.393,22.646l-1.949,89.803      c-0.292,13.43,9.264,25.041,21.338,25.934l178.491,13.203c11.993,0.887,21.947-9.238,22.237-22.615l1.942-89.45      C1937.263,1084.79,1927.78,1073.203,1915.788,1072.287z"/>
				<path style="fill:#FFFFFF;" d="M2684.233,1129.212l-176.865-13.517c-11.964-0.914-21.902,9.181-22.192,22.55l-1.94,89.395      c-0.29,13.369,9.177,24.924,21.142,25.809l176.874,13.084c11.885,0.879,21.749-9.204,22.038-22.52l1.933-89.045      C2705.512,1141.651,2696.117,1130.12,2684.233,1129.212z"/>
			</g>
			<g>
				<polygon style="fill:#FFFFFF;" points="2085.505,1070.461 2077.445,1069.843 2079.524,974.075 2087.583,974.706     "/>
				<path style="fill:#FFFFFF;" d="M1827.341,1050.67l-8.134-0.623l0.529-24.362c0.285-13.113,10.136-23.036,21.957-22.12      l178.094,13.804c7.289,0.565,13.36-5.573,13.536-13.682l0.72-33.176l8.072,0.633l-0.72,33.172      c-0.283,13.062-10.062,22.95-21.804,22.042l-178.095-13.776c-7.337-0.568-13.451,5.592-13.627,13.731L1827.341,1050.67z"/>
				<path style="fill:#FFFFFF;" d="M2341.324,1090.071l-7.987-0.612l0.524-24.14c0.175-8.066-5.548-15.082-12.759-15.64      l-176.193-13.629c-11.694-0.905-20.981-12.252-20.698-25.295l0.719-33.123l8.046,0.63l-0.719,33.118      c-0.176,8.095,5.588,15.139,12.846,15.701l176.193,13.657c11.616,0.9,20.833,12.203,20.551,25.195L2341.324,1090.071z"/>
			</g>
			<g>
				<path style="fill:#FFFFFF;" d="M1787.708,1314.317l-7.986-0.612l0.524-24.14c0.175-8.066-5.548-15.082-12.759-15.64      l-176.193-13.629c-11.694-0.905-20.981-12.252-20.698-25.295l0.719-33.123l8.046,0.631l-0.719,33.118      c-0.176,8.095,5.588,15.139,12.846,15.701l176.193,13.657c11.616,0.9,20.833,12.203,20.551,25.195L1787.708,1314.317z"/>
			</g>
			<g>
				<path style="fill:#FFFFFF;" d="M1907.183,1334.065l-180.14-12.926c-12.185-0.874-22.304,9.354-22.597,22.845l-1.958,90.215      c-0.293,13.491,9.353,25.113,21.538,25.958l180.15,12.484c12.103,0.839,22.148-9.375,22.439-22.813l1.951-89.859      C1928.856,1346.531,1919.285,1334.933,1907.183,1334.065z"/>
				<path style="fill:#FFFFFF;" d="M2164.592,1352.535l-178.5-12.808c-12.075-0.866-22.103,9.318-22.395,22.748l-1.949,89.803      c-0.292,13.43,9.265,24.995,21.34,25.832l178.509,12.371c11.994,0.831,21.949-9.339,22.239-22.716l1.942-89.45      C2186.069,1364.937,2176.586,1353.396,2164.592,1352.535z"/>
				<path style="fill:#FFFFFF;" d="M2419.67,1370.838l-176.883-12.692c-11.965-0.858-21.904,9.283-22.194,22.651l-1.941,89.395      c-0.29,13.369,9.178,24.878,21.145,25.708l176.892,12.259c11.886,0.824,21.751-9.304,22.04-22.62l1.933-89.045      C2440.951,1383.177,2431.555,1371.691,2419.67,1370.838z"/>
			</g>
			<g>
				<polygon style="fill:#FFFFFF;" points="2079.798,1333.381 2071.737,1332.801 2073.816,1237.032 2081.876,1237.626     "/>
				<path style="fill:#FFFFFF;" d="M1821.607,1314.795l-8.134-0.586l0.529-24.361c0.285-13.113,10.137-23.081,21.959-22.22      l178.112,12.973c7.29,0.531,13.362-5.634,13.538-13.744l0.72-33.177l8.073,0.595l-0.72,33.172      c-0.283,13.062-10.063,22.995-21.806,22.141l-178.113-12.945c-7.338-0.533-13.452,5.654-13.629,13.793L1821.607,1314.795z"/>
				<path style="fill:#FFFFFF;" d="M2335.643,1351.798l-7.987-0.575l0.524-24.14c0.175-8.066-5.548-15.054-12.76-15.579      l-176.211-12.807c-11.695-0.85-20.983-12.153-20.7-25.196l0.719-33.123l8.047,0.593l-0.719,33.118      c-0.176,8.095,5.588,15.111,12.847,15.64l176.211,12.835c11.617,0.846,20.835,12.105,20.553,25.097L2335.643,1351.798z"/>
				<path style="fill:#FFFFFF;" d="M2368.368,1354.554l7.99,0.533l2.813-23.982c0.94-8.013,7.573-14.145,14.788-13.668      l176.292,11.637c11.701,0.772,22.459-9.141,23.979-22.098l3.859-32.905l-8.052-0.523l-3.859,32.901      c-0.943,8.042-7.62,14.195-14.883,13.717l-176.295-11.609c-11.623-0.765-22.307,9.113-23.821,22.02L2368.368,1354.554z"/>
			</g>
		</g>
	</g>
</g>
</svg>